<svg xmlns="http://www.w3.org/2000/svg" width="142.686" height="63.464" viewBox="0 0 142.686 63.464">
  <path id="Path_963" data-name="Path 963" d="M10.62-5.13a3.417,3.417,0,0,1-.4,1.161A3.405,3.405,0,0,1,9.5-3.1a2.916,2.916,0,0,1-.945.549,3.33,3.33,0,0,1-1.125.189,3.879,3.879,0,0,1-1.566-.306,3.533,3.533,0,0,1-1.206-.855,3.8,3.8,0,0,1-.774-1.3,4.7,4.7,0,0,1-.27-1.611,4.379,4.379,0,0,1,.261-1.521,3.518,3.518,0,0,1,.747-1.224A3.588,3.588,0,0,1,5.814-9.99,3.926,3.926,0,0,1,7.4-10.3,3.37,3.37,0,0,1,9.531-9.6,2.939,2.939,0,0,1,10.6-7.578H9.378A1.9,1.9,0,0,0,8.7-8.694a2,2,0,0,0-1.3-.432A2.227,2.227,0,0,0,6.39-8.91a2.219,2.219,0,0,0-.729.576,2.475,2.475,0,0,0-.45.855,3.547,3.547,0,0,0-.153,1.053A3.745,3.745,0,0,0,5.22-5.31a2.784,2.784,0,0,0,.477.918,2.386,2.386,0,0,0,.756.63,2.06,2.06,0,0,0,.981.234,1.967,1.967,0,0,0,1.332-.45A1.765,1.765,0,0,0,9.378-5.13Zm1.746-1.3a6.2,6.2,0,0,0-.4-2.25,5.289,5.289,0,0,0-1.1-1.764,4.952,4.952,0,0,0-1.638-1.143,5.022,5.022,0,0,0-2.016-.405,5.131,5.131,0,0,0-2.043.405A4.928,4.928,0,0,0,3.528-10.44a5.289,5.289,0,0,0-1.1,1.764,6.2,6.2,0,0,0-.4,2.25,6.375,6.375,0,0,0,.36,2.16A5.288,5.288,0,0,0,3.429-2.5,4.928,4.928,0,0,0,5.058-1.3a5.09,5.09,0,0,0,2.16.441,5.022,5.022,0,0,0,2.016-.405,4.952,4.952,0,0,0,1.638-1.143,5.309,5.309,0,0,0,1.1-1.755A6.179,6.179,0,0,0,12.366-6.426Zm1.44,0a6.936,6.936,0,0,1-.531,2.754,6.457,6.457,0,0,1-1.44,2.124A6.51,6.51,0,0,1,9.729-.18,6.612,6.612,0,0,1,7.218.306,6.8,6.8,0,0,1,4.545-.207,6.268,6.268,0,0,1,2.457-1.62,6.508,6.508,0,0,1,1.089-3.753a7.108,7.108,0,0,1-.5-2.673A6.936,6.936,0,0,1,1.125-9.18,6.457,6.457,0,0,1,2.565-11.3,6.486,6.486,0,0,1,4.68-12.672a6.726,6.726,0,0,1,2.538-.486,6.612,6.612,0,0,1,2.511.486A6.51,6.51,0,0,1,11.835-11.3a6.457,6.457,0,0,1,1.44,2.124A6.936,6.936,0,0,1,13.806-6.426Zm2.43-6.426H19.4L22.95-2.79h.036l3.456-10.062h3.132V0H27.432V-9.918H27.4L23.832,0H21.978L18.414-9.918h-.036V0H16.236Zm19.98,0H38.61L43.56,0H41.148L39.942-3.4h-5.13L33.606,0H31.284Zm-.792,7.74h3.924l-1.926-5.526h-.054ZM47.3-5.04,42.48-12.852h2.61l3.4,5.76,3.348-5.76h2.52L49.554-5.04V0H47.3ZM58.23-12.852h2.394L65.574,0H63.162L61.956-3.4h-5.13L55.62,0H53.3Zm-.792,7.74h3.924l-1.926-5.526h-.054Zm15.372-7.74h5.328a6,6,0,0,1,2.556.5,4.749,4.749,0,0,1,1.764,1.377,5.884,5.884,0,0,1,1.017,2.043,9.1,9.1,0,0,1,.333,2.5,9.1,9.1,0,0,1-.333,2.5,5.884,5.884,0,0,1-1.017,2.043A4.749,4.749,0,0,1,80.694-.5a6,6,0,0,1-2.556.5H72.81ZM75.06-1.836h2.214a5.615,5.615,0,0,0,2.151-.351,3.147,3.147,0,0,0,1.314-.972,3.509,3.509,0,0,0,.648-1.458,9.037,9.037,0,0,0,.171-1.809,9.037,9.037,0,0,0-.171-1.809,3.509,3.509,0,0,0-.648-1.458,3.147,3.147,0,0,0-1.314-.972,5.615,5.615,0,0,0-2.151-.351H75.06ZM86.31-12.852h9.252v1.944h-7v3.366h6.48v1.836H88.56v3.762h7.128V0H86.31Zm11.844,0h2.25V-1.944h6.534V0H98.154Zm10.836,0h2.25V0h-2.25Zm8.946,0h2.394L125.28,0h-2.412l-1.206-3.4h-5.13L115.326,0H113Zm-.792,7.74h3.924l-1.926-5.526h-.054Zm14-.756h9v1.944h-9ZM12.582,25h-1.44L10.8,23.488A5.346,5.346,0,0,1,9,24.91a5.1,5.1,0,0,1-2.07.4,6.061,6.061,0,0,1-2.583-.531,5.682,5.682,0,0,1-1.935-1.449A6.482,6.482,0,0,1,1.2,21.184a8.208,8.208,0,0,1,0-5.2A6.482,6.482,0,0,1,2.412,13.84a5.783,5.783,0,0,1,1.935-1.458,5.975,5.975,0,0,1,2.583-.54,6.989,6.989,0,0,1,1.989.279,5.312,5.312,0,0,1,1.683.828,4.588,4.588,0,0,1,1.224,1.377,4.83,4.83,0,0,1,.612,1.908h-2.2a2.757,2.757,0,0,0-1.134-1.908A3.271,3.271,0,0,0,8.1,13.84a4.176,4.176,0,0,0-1.17-.162,3.6,3.6,0,0,0-1.773.414A3.476,3.476,0,0,0,3.942,15.2a4.994,4.994,0,0,0-.693,1.575,7.312,7.312,0,0,0,0,3.6,4.994,4.994,0,0,0,.693,1.575,3.476,3.476,0,0,0,1.215,1.107,3.6,3.6,0,0,0,1.773.414,4.191,4.191,0,0,0,1.53-.225,3.037,3.037,0,0,0,1.125-.7,2.945,2.945,0,0,0,.693-1.125,4.751,4.751,0,0,0,.252-1.476H7.11v-1.71h5.472Zm2.952-12.852h6.138a4.762,4.762,0,0,1,3.186.918,3.2,3.2,0,0,1,1.062,2.556,3.732,3.732,0,0,1-.27,1.521,3.32,3.32,0,0,1-.63.972,2.461,2.461,0,0,1-.711.531q-.351.162-.513.216V18.9a2.3,2.3,0,0,1,.621.18,1.832,1.832,0,0,1,.621.459,2.5,2.5,0,0,1,.477.819,3.62,3.62,0,0,1,.189,1.26,11.4,11.4,0,0,0,.171,2.061A2.712,2.712,0,0,0,26.406,25H23.994a2.1,2.1,0,0,1-.3-.918q-.045-.5-.045-.972a9.266,9.266,0,0,0-.108-1.521,2.652,2.652,0,0,0-.4-1.062,1.676,1.676,0,0,0-.783-.621,3.455,3.455,0,0,0-1.269-.2H17.784V25h-2.25ZM17.784,18h3.69a2.341,2.341,0,0,0,1.638-.513,1.989,1.989,0,0,0,.558-1.539,2.381,2.381,0,0,0-.18-1,1.455,1.455,0,0,0-.5-.6,1.819,1.819,0,0,0-.72-.288,4.774,4.774,0,0,0-.837-.072H17.784Zm14.364-5.85h2.394L39.492,25H37.08l-1.206-3.4h-5.13L29.538,25H27.216Zm-.792,7.74H35.28l-1.926-5.526H33.3Zm9.864-7.74h5.67a5.389,5.389,0,0,1,2.232.4,3.522,3.522,0,0,1,1.332.99,3.362,3.362,0,0,1,.639,1.3,5.5,5.5,0,0,1,.171,1.3,5.394,5.394,0,0,1-.171,1.287,3.368,3.368,0,0,1-.639,1.287,3.446,3.446,0,0,1-1.332.981,5.5,5.5,0,0,1-2.232.387H43.47V25H41.22Zm2.25,6.084h3.294a2.935,2.935,0,0,0,.774-.108,2.216,2.216,0,0,0,.729-.351,1.8,1.8,0,0,0,.54-.648,2.224,2.224,0,0,0,.207-1.017,2.629,2.629,0,0,0-.18-1.044,1.668,1.668,0,0,0-.486-.657,1.729,1.729,0,0,0-.7-.333,3.811,3.811,0,0,0-.846-.09H43.47Zm10.206-6.084h2.25V17.26h5.85V12.148h2.25V25h-2.25V19.2h-5.85V25h-2.25Zm13.554,0h2.25V25H67.23Zm14.184,4.086a4.556,4.556,0,0,0-.4-1.026,2.838,2.838,0,0,0-.648-.81,2.879,2.879,0,0,0-.927-.531,3.672,3.672,0,0,0-1.233-.189,3.6,3.6,0,0,0-1.773.414A3.477,3.477,0,0,0,75.222,15.2a4.994,4.994,0,0,0-.693,1.575,7.313,7.313,0,0,0,0,3.6,4.994,4.994,0,0,0,.693,1.575,3.477,3.477,0,0,0,1.215,1.107,3.6,3.6,0,0,0,1.773.414,3.2,3.2,0,0,0,1.332-.261,2.965,2.965,0,0,0,.99-.72,3.388,3.388,0,0,0,.648-1.071,5.128,5.128,0,0,0,.306-1.314h2.2a6.091,6.091,0,0,1-.5,2.106,5.164,5.164,0,0,1-1.143,1.647,5.05,5.05,0,0,1-1.692,1.071,5.863,5.863,0,0,1-2.142.378,6.061,6.061,0,0,1-2.583-.531,5.682,5.682,0,0,1-1.935-1.449,6.482,6.482,0,0,1-1.215-2.142,8.208,8.208,0,0,1,0-5.2,6.482,6.482,0,0,1,1.215-2.142,5.783,5.783,0,0,1,1.935-1.458,5.975,5.975,0,0,1,2.583-.54,6.806,6.806,0,0,1,2.034.3A5.259,5.259,0,0,1,81.927,13a4.487,4.487,0,0,1,1.179,1.377,4.791,4.791,0,0,1,.558,1.854ZM98.6,23.56a4.539,4.539,0,0,1-1.593,1.287A4.72,4.72,0,0,1,95,25.252a4.908,4.908,0,0,1-1.629-.261,3.745,3.745,0,0,1-1.287-.747,3.292,3.292,0,0,1-.837-1.2,4.146,4.146,0,0,1-.3-1.611,2.984,2.984,0,0,1,.252-1.242,3.918,3.918,0,0,1,.666-1.017,5.181,5.181,0,0,1,.945-.819,10.618,10.618,0,0,1,1.089-.648q-.252-.324-.486-.639a5.026,5.026,0,0,1-.414-.657,3.758,3.758,0,0,1-.288-.72,2.869,2.869,0,0,1-.108-.792,3.126,3.126,0,0,1,.243-1.26,2.881,2.881,0,0,1,.675-.963,2.993,2.993,0,0,1,1.008-.621,3.457,3.457,0,0,1,1.224-.216,3.87,3.87,0,0,1,1.2.189,2.825,2.825,0,0,1,1.737,1.539,3.152,3.152,0,0,1,.27,1.35,2.906,2.906,0,0,1-.189,1.062,3.522,3.522,0,0,1-.5.891,4.046,4.046,0,0,1-.738.729,6.64,6.64,0,0,1-.891.576l2,2.412q.108-.306.216-.7a7.075,7.075,0,0,0,.18-1.026h1.8a9.1,9.1,0,0,1-.333,1.656,6.023,6.023,0,0,1-.675,1.494L102.294,25h-2.52Zm-3.618-4.5q-.288.18-.63.36a3.082,3.082,0,0,0-.639.45,2.47,2.47,0,0,0-.5.648,1.97,1.97,0,0,0-.207.954,2.11,2.11,0,0,0,.585,1.6,2.065,2.065,0,0,0,1.485.558,2.556,2.556,0,0,0,1.629-.522,2.467,2.467,0,0,0,.468-.468q.189-.252.333-.45Zm.828-5.688a1.337,1.337,0,0,0-.972.387,1.381,1.381,0,0,0-.4,1.035,1.543,1.543,0,0,0,.117.6,3.344,3.344,0,0,0,.288.54,5.919,5.919,0,0,0,.378.513q.207.252.387.486.288-.2.558-.405a3.483,3.483,0,0,0,.486-.45A1.92,1.92,0,0,0,97,15.532a1.781,1.781,0,0,0,.126-.684,1.568,1.568,0,0,0-.36-1.053A1.191,1.191,0,0,0,95.814,13.372ZM.108,37.148H2.394l2.322,9.828h.036l2.592-9.828h2.3l2.52,9.828H12.2L14.6,37.148h2.286L13.338,50H11.052L8.478,40.172H8.442L5.814,50H3.492Zm18.756,0h9.252v1.944h-7v3.366h6.48v1.836h-6.48v3.762h7.128V50H18.864ZM32.958,42.53H36.63a2.012,2.012,0,0,0,1.35-.459,1.64,1.64,0,0,0,.54-1.323,1.676,1.676,0,0,0-.486-1.368,2.175,2.175,0,0,0-1.4-.4H32.958Zm-2.25-5.382h6.246a4.472,4.472,0,0,1,2.772.792,2.814,2.814,0,0,1,1.044,2.394A2.864,2.864,0,0,1,40.293,42a3.064,3.064,0,0,1-1.359,1.071v.036a2.809,2.809,0,0,1,1.8,1.125,3.718,3.718,0,0,1,.612,2.187,3.681,3.681,0,0,1-.27,1.413,2.88,2.88,0,0,1-.846,1.134,4.27,4.27,0,0,1-1.476.756A7.276,7.276,0,0,1,36.612,50h-5.9Zm2.25,11.016h3.978a2.241,2.241,0,0,0,1.593-.531,1.959,1.959,0,0,0,.567-1.5,1.877,1.877,0,0,0-.567-1.467,2.291,2.291,0,0,0-1.593-.513H32.958ZM49.392,37.148H54.72a6,6,0,0,1,2.556.5,4.749,4.749,0,0,1,1.764,1.377,5.884,5.884,0,0,1,1.017,2.043,9.566,9.566,0,0,1,0,5,5.884,5.884,0,0,1-1.017,2.043A4.749,4.749,0,0,1,57.276,49.5a6,6,0,0,1-2.556.5H49.392Zm2.25,11.016h2.214a5.615,5.615,0,0,0,2.151-.351,3.147,3.147,0,0,0,1.314-.972,3.509,3.509,0,0,0,.648-1.458,9.654,9.654,0,0,0,0-3.618,3.509,3.509,0,0,0-.648-1.458,3.147,3.147,0,0,0-1.314-.972,5.615,5.615,0,0,0-2.151-.351H51.642Zm11.25-11.016h9.252v1.944h-7v3.366h6.48v1.836h-6.48v3.762H72.27V50H62.892Zm13.32,8.568a2.877,2.877,0,0,0,.252,1.26,2.276,2.276,0,0,0,.7.855,2.994,2.994,0,0,0,1.035.486,5,5,0,0,0,1.269.153,4.075,4.075,0,0,0,1.26-.171,2.549,2.549,0,0,0,.846-.441,1.593,1.593,0,0,0,.468-.621,1.859,1.859,0,0,0,.144-.711,1.536,1.536,0,0,0-.333-1.089,1.9,1.9,0,0,0-.729-.495,15.244,15.244,0,0,0-1.593-.477q-.909-.225-2.241-.585a4.8,4.8,0,0,1-1.377-.567,3.285,3.285,0,0,1-.873-.783,2.75,2.75,0,0,1-.459-.918,3.682,3.682,0,0,1-.135-.99,3.344,3.344,0,0,1,.4-1.683,3.6,3.6,0,0,1,1.071-1.179,4.71,4.71,0,0,1,1.512-.693,6.626,6.626,0,0,1,1.71-.225,6.724,6.724,0,0,1,1.9.261,4.683,4.683,0,0,1,1.566.783,3.715,3.715,0,0,1,1.467,3.06h-2.25a2.169,2.169,0,0,0-.846-1.755,3.359,3.359,0,0,0-1.926-.513,4.213,4.213,0,0,0-.81.081,2.573,2.573,0,0,0-.756.27,1.659,1.659,0,0,0-.567.513,1.569,1.569,0,0,0,.2,1.881,2.739,2.739,0,0,0,1.107.585l.567.153q.495.135,1.107.3l1.2.315q.585.153.837.225a3.751,3.751,0,0,1,1.1.54,3.462,3.462,0,0,1,.783.783,3.233,3.233,0,0,1,.468.945,3.454,3.454,0,0,1,.153,1.008A3.636,3.636,0,0,1,84,48.119a3.743,3.743,0,0,1-1.161,1.251,5.047,5.047,0,0,1-1.638.711,7.835,7.835,0,0,1-1.872.225,7.7,7.7,0,0,1-2.07-.27,4.845,4.845,0,0,1-1.692-.828,4.051,4.051,0,0,1-1.152-1.431,4.764,4.764,0,0,1-.45-2.061ZM86.9,37.148h2.25V50H86.9ZM103.626,50h-1.44l-.342-1.512a5.346,5.346,0,0,1-1.8,1.422,5.1,5.1,0,0,1-2.07.4,6.061,6.061,0,0,1-2.583-.531,5.682,5.682,0,0,1-1.935-1.449,6.482,6.482,0,0,1-1.215-2.142,8.208,8.208,0,0,1,0-5.2,6.482,6.482,0,0,1,1.215-2.142,5.783,5.783,0,0,1,1.935-1.458,5.975,5.975,0,0,1,2.583-.54,6.989,6.989,0,0,1,1.989.279,5.312,5.312,0,0,1,1.683.828,4.588,4.588,0,0,1,1.224,1.377,4.83,4.83,0,0,1,.612,1.908h-2.2a2.757,2.757,0,0,0-1.134-1.908,3.271,3.271,0,0,0-1.008-.486,4.176,4.176,0,0,0-1.17-.162,3.6,3.6,0,0,0-1.773.414A3.476,3.476,0,0,0,94.986,40.2a4.994,4.994,0,0,0-.693,1.575,7.313,7.313,0,0,0,0,3.6,4.994,4.994,0,0,0,.693,1.575A3.476,3.476,0,0,0,96.2,48.056a3.6,3.6,0,0,0,1.773.414,4.191,4.191,0,0,0,1.53-.225,3.037,3.037,0,0,0,1.125-.7,2.945,2.945,0,0,0,.693-1.125,4.751,4.751,0,0,0,.252-1.476h-3.42v-1.71h5.472Zm2.862-12.852h2.376l5.868,9.468h.036V37.148h2.142V50h-2.376l-5.85-9.45h-.054V50h-2.142Zm13.59,0h9.252v1.944h-7v3.366h6.48v1.836h-6.48v3.762h7.128V50h-9.378Zm11.844,0h6.138a4.762,4.762,0,0,1,3.186.918,3.2,3.2,0,0,1,1.062,2.556,3.732,3.732,0,0,1-.27,1.521,3.32,3.32,0,0,1-.63.972,2.461,2.461,0,0,1-.711.531q-.351.162-.513.216V43.9a2.3,2.3,0,0,1,.621.18,1.832,1.832,0,0,1,.621.459,2.5,2.5,0,0,1,.477.819,3.62,3.62,0,0,1,.189,1.26,11.4,11.4,0,0,0,.171,2.061A2.712,2.712,0,0,0,142.794,50h-2.412a2.1,2.1,0,0,1-.3-.918q-.045-.5-.045-.972a9.265,9.265,0,0,0-.108-1.521,2.652,2.652,0,0,0-.4-1.062,1.676,1.676,0,0,0-.783-.621,3.455,3.455,0,0,0-1.269-.2h-3.312V50h-2.25Zm2.25,5.85h3.69a2.341,2.341,0,0,0,1.638-.513,1.989,1.989,0,0,0,.558-1.539,2.381,2.381,0,0,0-.18-1,1.455,1.455,0,0,0-.5-.6,1.819,1.819,0,0,0-.72-.288,4.774,4.774,0,0,0-.837-.072h-3.654Z" transform="translate(-0.108 13.158)"/>
</svg>
