<?xml version="1.0" encoding="utf-8"?>
<!-- Generator: Adobe Illustrator 24.2.1, SVG Export Plug-In . SVG Version: 6.00 Build 0)  -->
<svg version="1.1" id="レイヤー_1" xmlns="http://www.w3.org/2000/svg" xmlns:xlink="http://www.w3.org/1999/xlink" x="0px"
	 y="0px" viewBox="0 0 135.2 35.2" style="enable-background:new 0 0 135.2 35.2;" xml:space="preserve">
<g>
	<path d="M0,1.2h27.3v5.1H16.6v28.6h-5.9V6.3H0V1.2z"/>
	<path d="M29.4,1.2h8.3L47,27.5h0.1l9.1-26.4h8.2v33.7h-5.6v-26h-0.1l-9.3,26h-4.9l-9.3-26h-0.1v26h-5.6V1.2z"/>
	<path d="M67,1.2h6.2L88.6,26h0.1V1.2h5.6v33.7h-6.2L72.8,10.1h-0.1v24.8H67V1.2z"/>
	<path d="M132,24.6l-3.3,1.9l-2.8-3c-0.9,4.7-2.8,7.2-6.3,9.3c-8.7,5.1-18,1.3-22.9-7c-4.9-8.3-3.8-18.3,4.9-23.4
		C108-1.3,115.3-1,120,5L115,8c-2.7-3.5-7.2-3.5-10.9-1.4c-6.2,3.7-5.6,10.7-2.3,16.3c3.3,5.6,9.1,9.5,15.3,5.8
		c5.2-3,6.2-7.8,3.4-12.8l-7.7,4.6l-2.3-3.9l12.4-7.3L132,24.6z"/>
	<path d="M128.7,28.5h6.6v6.4h-6.6V28.5z"/>
</g>
</svg>
